<svg width="729" height="844" viewBox="0 0 729 844" fill="none" xmlns="http://www.w3.org/2000/svg">
<path d="M344.661 -64.8207C326.301 -81.4083 306.505 -100.542 282.493 -108H759V769.07C752.698 775.367 745.433 775.557 736.797 774.531C727.108 773.38 715.684 773.005 707.165 767.704C693.974 759.497 683.672 746.58 672.921 735.619C643.885 706.014 605.563 681.419 568.226 663.426C539.647 649.652 506.637 630.299 456.417 637.646C405 653.284 367.329 674.283 314.175 682.455C257.953 691.098 195.916 686.605 139.883 677.42C104.808 671.672 66.2311 654.029 37.658 623.604C18.9216 597.391 1.06328 554.571 0.185197 526.712C-2.39131 444.966 21.9921 399.226 68.5731 332.46C105.426 289.337 151.951 255.922 202.563 228.731C236.061 210.734 274.457 199.543 306.233 178.554C332.583 161.149 356.422 131.706 371.646 104.483C387.661 75.8448 391.427 42.3707 385.309 10.4445C379.842 -18.0878 366.324 -45.2493 344.661 -64.8207Z" fill="url(#paint0_linear)"/>
<path fill-rule="evenodd" clip-rule="evenodd" d="M510.173 329.347H500.888C492.876 329.347 486.38 322.457 486.38 313.956V288.066C486.38 285.507 488.336 283.432 490.749 283.432H520.312C522.725 283.432 524.681 285.507 524.681 288.066V313.956C524.681 322.457 518.186 329.347 510.173 329.347Z" fill="#DCEEFF"/>
<path fill-rule="evenodd" clip-rule="evenodd" d="M495.601 306.389H515.46V264.902H495.601V306.389Z" fill="#DCEEFF"/>
<path fill-rule="evenodd" clip-rule="evenodd" d="M400.034 302.79C400.034 306.634 402.971 309.75 406.595 309.75H465.626V295.83H406.595C402.971 295.83 400.034 298.946 400.034 302.79Z" fill="#CCE3FF"/>
<path fill-rule="evenodd" clip-rule="evenodd" d="M439.737 302.79C439.737 305.016 441.437 306.82 443.535 306.82H465.467C465.555 306.82 465.626 306.745 465.626 306.652V298.928C465.626 298.836 465.555 298.761 465.467 298.761H443.535C441.437 298.761 439.737 300.565 439.737 302.79Z" fill="#DCEEFF"/>
<path fill-rule="evenodd" clip-rule="evenodd" d="M391.795 309.75V323.671H456.227C459.851 323.671 462.788 320.555 462.788 316.71C462.788 312.867 459.851 309.75 456.227 309.75H391.795Z" fill="#CCE3FF"/>
<path fill-rule="evenodd" clip-rule="evenodd" d="M391.795 312.72V320.701H418.287C420.365 320.701 422.049 318.915 422.049 316.711C422.049 314.506 420.365 312.72 418.287 312.72H391.795Z" fill="#DCEEFF"/>
<path fill-rule="evenodd" clip-rule="evenodd" d="M416.548 287.343L420.739 244.019H433.843L438.034 287.343C438.473 291.883 435.115 295.83 430.813 295.83H423.77C419.468 295.83 416.109 291.883 416.548 287.343Z" fill="#DCEEFF"/>
<path fill-rule="evenodd" clip-rule="evenodd" d="M308.98 697.14H503.366V329.892H308.98V697.14Z" fill="#E6F4FF"/>
<path fill-rule="evenodd" clip-rule="evenodd" d="M308.98 723.467H320.173V329.892H308.98V723.467Z" fill="#E6F4FF"/>
<path fill-rule="evenodd" clip-rule="evenodd" d="M320.173 723.467H331.365V697.14H320.173V723.467Z" fill="#B6D4FF"/>
<path fill-rule="evenodd" clip-rule="evenodd" d="M388.306 723.467H399.498V697.14H388.306V723.467Z" fill="#B6D4FF"/>
<path fill-rule="evenodd" clip-rule="evenodd" d="M503.367 723.467H514.558V697.14H503.367V723.467Z" fill="#B6D4FF"/>
<path fill-rule="evenodd" clip-rule="evenodd" d="M549.116 723.467H560.308V697.14H549.116V723.467Z" fill="#C5E0FC"/>
<path fill-rule="evenodd" clip-rule="evenodd" d="M492.175 723.467H503.366V329.892H492.175V723.467Z" fill="#E6F4FF"/>
<path fill-rule="evenodd" clip-rule="evenodd" d="M560.308 723.831H571.499V697.14H560.308V723.831Z" fill="#B6D4FF"/>
<path fill-rule="evenodd" clip-rule="evenodd" d="M377.114 723.467H388.306V697.14H377.114V723.467Z" fill="#C5E0FC"/>
<path fill-rule="evenodd" clip-rule="evenodd" d="M320.172 680.84H398.755V610.366H320.172V680.84Z" fill="#CCE3FF"/>
<path fill-rule="evenodd" clip-rule="evenodd" d="M413.593 680.841H492.177V610.366H413.593V680.841Z" fill="#CCE3FF"/>
<path fill-rule="evenodd" clip-rule="evenodd" d="M320.172 594.626H398.755V524.157H320.172V594.626Z" fill="#CCE3FF"/>
<path fill-rule="evenodd" clip-rule="evenodd" d="M413.593 594.626H492.177V524.157H413.593V594.626Z" fill="#CCE3FF"/>
<path fill-rule="evenodd" clip-rule="evenodd" d="M320.173 508.415H492.175V437.944H320.173V508.415Z" fill="#CCE3FF"/>
<path fill-rule="evenodd" clip-rule="evenodd" d="M320.173 508.415H373.383V437.944H320.173V508.415Z" fill="#B6D4FF"/>
<path fill-rule="evenodd" clip-rule="evenodd" d="M320.173 422.204H492.175V351.733H320.173V422.204Z" fill="#CCE3FF"/>
<path fill-rule="evenodd" clip-rule="evenodd" d="M320.173 422.204H373.383V351.733H320.173V422.204Z" fill="#B6D4FF"/>
<path fill-rule="evenodd" clip-rule="evenodd" d="M503.366 697.14H571.499V329.892H503.366V697.14Z" fill="#B6D4FF"/>
<path fill-rule="evenodd" clip-rule="evenodd" d="M501.136 335.159H304.685C298.977 335.159 294.349 330.25 294.349 324.194V323.535H501.136V335.159Z" fill="#E6F4FF"/>
<path fill-rule="evenodd" clip-rule="evenodd" d="M575.678 335.159H501.136V323.535H586.014V324.194C586.014 330.25 581.387 335.159 575.678 335.159Z" fill="#B6D4FF"/>
<path fill-rule="evenodd" clip-rule="evenodd" d="M308.98 340.244H503.366V335.159H308.98V340.244Z" fill="#CCE3FF"/>
<path fill-rule="evenodd" clip-rule="evenodd" d="M358.711 422.204H369.273V379.4H358.711V422.204Z" fill="#DCEEFF"/>
<path fill-rule="evenodd" clip-rule="evenodd" d="M348.148 422.204H358.711V379.4H348.148V422.204Z" fill="#CCE3FF"/>
<path fill-rule="evenodd" clip-rule="evenodd" d="M369.273 422.204H379.835V379.4H369.273V422.204Z" fill="#CCE3FF"/>
<path fill-rule="evenodd" clip-rule="evenodd" d="M407.664 422.203H379.835V379.4H407.664C409.151 379.4 410.356 380.678 410.356 382.255V419.348C410.356 420.925 409.151 422.203 407.664 422.203Z" fill="#B6D4FF"/>
<path fill-rule="evenodd" clip-rule="evenodd" d="M384.358 389.874H405.833V385.636H384.358V389.874Z" fill="#CCE3FF"/>
<path fill-rule="evenodd" clip-rule="evenodd" d="M389.143 396.413H401.048V392.175H389.143V396.413Z" fill="#CCE3FF"/>
<path fill-rule="evenodd" clip-rule="evenodd" d="M473.023 483.85V484.762C473.023 488.948 469.823 492.342 465.877 492.342H403.966V476.27H465.877C469.823 476.27 473.023 479.663 473.023 483.85Z" fill="#B6D4FF"/>
<path fill-rule="evenodd" clip-rule="evenodd" d="M431.222 484.042V484.57C431.222 486.994 429.37 488.959 427.085 488.959H404.052C404.005 488.959 403.966 488.918 403.966 488.867V479.745C403.966 479.694 404.005 479.653 404.052 479.653H427.085C429.37 479.653 431.222 481.618 431.222 484.042Z" fill="#DCEEFF"/>
<path fill-rule="evenodd" clip-rule="evenodd" d="M481.697 492.342V508.415H414.099C410.153 508.415 406.954 505.021 406.954 500.835V499.923C406.954 495.737 410.153 492.342 414.099 492.342H481.697Z" fill="#B6D4FF"/>
<path fill-rule="evenodd" clip-rule="evenodd" d="M481.697 495.771V504.987H453.942C451.679 504.987 449.844 503.041 449.844 500.64V500.118C449.844 497.717 451.679 495.771 453.942 495.771H481.697Z" fill="#DCEEFF"/>
<path fill-rule="evenodd" clip-rule="evenodd" d="M378.695 615.934H340.233C337.333 615.934 334.984 613.441 334.984 610.366H383.944C383.944 613.441 381.594 615.934 378.695 615.934Z" fill="#B6D4FF"/>
<path fill-rule="evenodd" clip-rule="evenodd" d="M472.116 615.934H433.653C430.755 615.934 428.405 613.441 428.405 610.366H477.365C477.365 613.441 475.015 615.934 472.116 615.934Z" fill="#B6D4FF"/>
<path fill-rule="evenodd" clip-rule="evenodd" d="M472.116 529.725H433.653C430.755 529.725 428.405 527.232 428.405 524.157H477.365C477.365 527.232 475.015 529.725 472.116 529.725Z" fill="#B6D4FF"/>
<path fill-rule="evenodd" clip-rule="evenodd" d="M378.695 529.725H340.233C337.333 529.725 334.984 527.232 334.984 524.157H383.944C383.944 527.232 381.594 529.725 378.695 529.725Z" fill="#B6D4FF"/>
<path fill-rule="evenodd" clip-rule="evenodd" d="M84.4824 587.77V588.642C84.4824 595.919 90.3023 601.813 97.4753 601.813H199.252C214.951 601.813 227.032 587.203 224.866 570.833L213.375 479.62C212.38 472.065 206.249 466.444 199.003 466.444H168.839C161.598 466.444 155.467 472.065 154.466 479.62L142.976 570.833C142.888 571.484 142.826 572.136 142.789 572.782L142.727 572.771C142.727 572.771 140.602 587.77 120.846 587.77H84.4824Z" fill="#DCEEFF"/>
<path fill-rule="evenodd" clip-rule="evenodd" d="M192.741 704.693C192.741 709.315 196.592 713.061 201.341 713.061C206.091 713.061 209.941 709.315 209.941 704.693C209.941 700.072 206.091 696.325 201.341 696.325C196.592 696.325 192.741 700.072 192.741 704.693Z" fill="#B6D4FF"/>
<path fill-rule="evenodd" clip-rule="evenodd" d="M113.721 706.662H199.42C202.702 706.662 205.388 704.004 205.388 700.755C205.388 697.507 202.702 694.848 199.42 694.848H113.721C110.439 694.848 107.753 697.507 107.753 700.755C107.753 704.004 110.439 706.662 113.721 706.662Z" fill="#CCE3FF"/>
<path fill-rule="evenodd" clip-rule="evenodd" d="M160.871 703.709H152.271V601.813H160.871V703.709Z" fill="#CCE3FF"/>
<path fill-rule="evenodd" clip-rule="evenodd" d="M126.471 601.813L156.571 615.104L186.671 601.813H126.471Z" fill="#CCE3FF"/>
<path fill-rule="evenodd" clip-rule="evenodd" d="M155.764 706.662H166.988C170.301 706.662 173.012 704.004 173.012 700.755C173.012 697.507 170.301 694.848 166.988 694.848H155.764C152.452 694.848 149.741 697.507 149.741 700.755C149.741 704.004 152.452 706.662 155.764 706.662Z" fill="#B6D4FF"/>
<path fill-rule="evenodd" clip-rule="evenodd" d="M163.4 704.693C163.4 709.315 167.25 713.061 172 713.061C176.75 713.061 180.6 709.315 180.6 704.693C180.6 700.072 176.75 696.325 172 696.325C167.25 696.325 163.4 700.072 163.4 704.693Z" fill="#B6D4FF"/>
<path fill-rule="evenodd" clip-rule="evenodd" d="M102.694 704.693C102.694 709.315 106.545 713.061 111.294 713.061C116.044 713.061 119.894 709.315 119.894 704.693C119.894 700.072 116.044 696.325 111.294 696.325C106.545 696.325 102.694 700.072 102.694 704.693Z" fill="#B6D4FF"/>
<path d="M200.302 415.448C219.377 418.038 211.385 439.416 206.024 450.958C199.731 464.507 205.243 473.591 205.243 473.591L234.729 463.404C223.907 450.012 235.859 442.554 232.917 426.587C230.277 412.264 215.952 405.802 206.901 406.107C202.383 406.259 198.685 407.391 195.758 408.843C195.647 408.898 195.541 408.957 195.439 409.019C190.092 403.676 182.691 400.483 174.136 400.483C156.544 400.483 140.738 413.989 140.738 431.922C140.738 449.855 154.999 464.393 172.592 464.393C190.184 464.393 204.445 449.855 204.445 431.922C204.445 425.793 202.96 420.181 200.302 415.448Z" fill="#19141E"/>
<path fill-rule="evenodd" clip-rule="evenodd" d="M169.48 465.25C169.48 465.25 176.021 465.438 178.809 463.956L169.827 469.443L169.48 465.25Z" fill="#CF3E83"/>
<path d="M145.094 441.26C146.075 448.645 148.619 459.052 154.902 463.117C158.235 465.273 164.306 465.539 169.481 465.248L170.665 479.548L187.551 472.785C187.551 472.785 185.927 457.003 185.224 450.953C188.618 447.96 194.401 446.572 194.411 441.487C194.411 439.725 193.354 436.678 189.448 436.668C184.207 436.663 184.956 442.777 184.956 442.777C184.307 443.022 183.656 443.008 183.006 442.783C177.817 442.573 163.383 440.458 153.569 424.141C152.424 429.634 150.043 436.48 145.094 441.26Z" fill="#E576C6"/>
<path fill-rule="evenodd" clip-rule="evenodd" d="M155.26 442.764L151.516 451.595L155.859 451.51L155.26 442.764Z" fill="#405FD3"/>
<path fill-rule="evenodd" clip-rule="evenodd" d="M159.246 443.147C159.339 444.911 160.405 446.285 161.627 446.217C162.849 446.148 163.765 444.663 163.671 442.899C163.577 441.134 162.512 439.76 161.289 439.828C160.067 439.897 159.152 441.383 159.246 443.147Z" fill="#0D0B6D"/>
<path fill-rule="evenodd" clip-rule="evenodd" d="M147.768 442.865C147.862 444.629 148.928 446.003 150.15 445.935C151.372 445.867 152.287 444.381 152.194 442.617C152.101 440.853 151.035 439.478 149.813 439.546C148.59 439.615 147.675 441.101 147.768 442.865Z" fill="#0D0B6D"/>
<path d="M156.925 455.74C156.925 455.74 159.755 456.629 162.591 453.561" stroke="#1C295E" stroke-width="3"/>
<path opacity="0.402786" fill-rule="evenodd" clip-rule="evenodd" d="M169.491 465.25C169.491 465.25 176.032 465.438 178.82 463.956L169.838 469.443L169.491 465.25Z" fill="black"/>
<path fill-rule="evenodd" clip-rule="evenodd" d="M42.4716 637.763L47.6877 627.775L60.2402 629.615L43.1661 656.849L5.71567 632.664C18.6056 629.866 42.4716 637.763 42.4716 637.763ZM101.118 690.41L99.8122 679.32L111.283 674.138L112.978 705.899L67.6927 705.823C76.8254 696.606 101.118 690.41 101.118 690.41Z" fill="#0D0B6D"/>
<path fill-rule="evenodd" clip-rule="evenodd" d="M46.3664 629.191L59.0883 631.776L51.7632 643.211L41.215 636.955L46.3664 629.191ZM99.7993 681.582L111.832 676.929L112.202 690.349L99.902 690.788L99.7993 681.582Z" fill="#E576C6"/>
<path d="M81.6155 618.599L87.8431 684.375H116.688L115.408 588.872L170.465 589.241C186.172 589.241 201.364 576.115 200.274 560.861L198.562 545.33L114.481 521.16C98.9158 517.735 93.519 522.26 83.4277 539.739L38.8716 628.61L63.3482 644.526L81.6155 618.599Z" fill="#2F2F3D"/>
<path opacity="0.150484" fill-rule="evenodd" clip-rule="evenodd" d="M107.457 550.986L170.465 589.241L115.408 588.872L116.688 684.375H87.8431L77.9542 579.927C75.5143 560.923 87.7374 550.986 107.457 550.986Z" fill="#18181C"/>
<path fill-rule="evenodd" clip-rule="evenodd" d="M195.775 545.544L199.271 545.494C199.271 545.494 199.266 545.441 199.262 545.328C198.058 545.411 196.893 545.48 195.775 545.544Z" fill="#C83820"/>
<path d="M124.547 582.404L136.087 583.811L154.673 555.526L155.351 546.125L183.665 545.716L195.75 545.544H195.776C196.894 545.48 198.058 545.411 199.261 545.327C214.483 544.294 235.573 541.414 237.02 533.439C239.646 518.996 219.785 490.968 217.438 487.719C217.291 487.518 217.215 487.409 217.215 487.409C213.887 482.782 210.537 479.184 207.411 477.269C201.33 473.543 195.629 472.725 190.211 472.74L188.76 462.506L166.657 465.474L167.861 473.981C161.371 474.586 156.955 475.821 152.822 479.513C139.552 491.367 138.576 535.763 138.576 535.763L124.547 582.404Z" fill="#CE3D29"/>
<path fill-rule="evenodd" clip-rule="evenodd" d="M183.665 545.716V545.913C183.665 545.913 188.734 545.923 195.75 545.544L183.665 545.716Z" fill="#C83820"/>
<path opacity="0.201149" d="M155.757 546.011C154.135 525.955 142.901 521.714 150.996 499.222" stroke="black" stroke-width="3"/>
<path fill-rule="evenodd" clip-rule="evenodd" d="M136.647 570.822L178.857 566.088C180.239 565.933 181.15 564.611 180.771 563.308L164.093 505.972C163.791 504.936 162.762 504.265 161.662 504.388L119.453 509.122C118.071 509.277 117.16 510.6 117.539 511.902L134.217 569.238C134.518 570.275 135.548 570.945 136.647 570.822Z" fill="#18181C"/>
<path d="M174.129 549.396C174.049 549.417 173.968 549.438 173.885 549.461C170.953 550.239 167.955 550.711 163.786 550.176C161.105 549.835 158.799 549.389 158.825 548.972C158.899 547.92 160.201 547.685 160.201 547.685L162.705 547.802L165.114 547.664C165.114 547.664 154.046 545.627 154.046 545.311C154.081 544.2 155.897 543.75 155.897 543.75C155.897 543.75 152.091 543.16 152.135 542.571C152.239 541.073 153.938 540.96 153.938 540.96C153.938 540.96 153.466 540.564 153.514 540.198C153.7 538.72 156.408 538.476 157.697 538.296C157.697 538.296 162.082 538.237 163.388 537.921C166.824 537.086 168.868 536.341 170.151 535.718L161.58 506.254C161.279 505.217 160.249 504.547 159.15 504.67L116.94 509.405C115.558 509.559 114.647 510.882 115.027 512.184L131.704 569.52C132.006 570.557 133.035 571.227 134.134 571.104L176.344 566.37C177.726 566.215 178.637 564.892 178.258 563.59L174.129 549.396Z" fill="#FCBDA4"/>
<path fill-rule="evenodd" clip-rule="evenodd" d="M154.046 545.311C154.081 544.2 155.897 543.75 155.897 543.75C155.897 543.75 152.092 543.16 152.135 542.571C152.239 541.073 153.938 540.959 153.938 540.959C153.938 540.959 153.467 540.564 153.514 540.197C153.686 538.829 156.021 538.519 157.389 538.337C157.498 538.322 157.601 538.309 157.697 538.295C157.697 538.295 162.082 538.237 163.388 537.921C169.902 536.338 171.416 535.076 172.216 534.365C172.24 534.343 172.264 534.322 172.287 534.301C172.353 534.242 172.414 534.188 172.476 534.138C172.431 534.09 172.38 534.011 172.326 533.929C172.251 533.812 172.172 533.689 172.098 533.637L170.985 529.668C171.8 529.754 172.597 529.781 173.386 529.807C174.494 529.845 175.587 529.881 176.696 530.08C179.72 530.623 181.51 531.305 181.51 531.305L185.368 532.589L188.166 542.664C187.107 543.581 184.568 545.391 182.846 546.304C179.522 548.066 178.057 548.424 175.81 548.974C175.433 549.067 175.033 549.165 174.599 549.276C174.549 549.288 174.5 549.301 174.45 549.313C174.267 549.36 174.079 549.408 173.885 549.461C170.953 550.239 167.956 550.71 163.787 550.176C161.105 549.835 158.8 549.389 158.825 548.972C158.899 547.92 160.201 547.685 160.201 547.685L162.705 547.802L165.114 547.663C165.114 547.663 154.046 545.626 154.046 545.311ZM118.394 590.142C118.865 589.242 122.095 585.466 124.748 582.428L135.793 583.775C137.058 591.034 131.803 601.407 131.803 601.407C131.803 601.407 134.536 599.785 135.08 601.203C135.322 601.836 135.871 606.88 125.632 607.219C124.545 607.256 121.93 605.104 121.93 605.104C121.93 605.104 123.836 608.647 120.917 609.343C120.917 609.343 116.211 602.482 116.139 600.956C116.068 599.429 117.578 591.703 118.394 590.142Z" fill="#E576C6"/>
<path opacity="0.148065" d="M129.712 587.563C129.712 587.563 128.276 592.844 123.345 594.49C121.62 595.065 122.051 601.858 117.825 601.046" stroke="black" stroke-width="3"/>
<path fill-rule="evenodd" clip-rule="evenodd" d="M157.291 510.012C157.624 511.028 158.333 511.715 158.876 511.547C159.419 511.379 159.589 510.419 159.257 509.403C158.924 508.387 158.215 507.699 157.672 507.867C157.129 508.035 156.959 508.995 157.291 510.012Z" fill="#020101"/>
<path opacity="0.200498" d="M199.809 503.199L210.463 520.364L183.973 530.563" stroke="black" stroke-width="3"/>
<defs>
<linearGradient id="paint0_linear" x1="759" y1="-108" x2="-537.768" y2="408.925" gradientUnits="userSpaceOnUse">
<stop stop-color="#9054FF"/>
<stop offset="0.359486" stop-color="#8255FE"/>
<stop offset="1" stop-color="#235FF8"/>
</linearGradient>
</defs>
</svg>

